HIERARCHY
ROOT Hips
{
	OFFSET -3.958830 18.904000 13.208200
	CHANNELS 6 Xposition Yposition Zposition Zrotation Yrotation Xrotation 
	JOINT LHipJoint
	{
		OFFSET 0.000000 0.000000 0.000000
		CHANNELS 3 Zrotation Yrotation Xrotation
		JOINT LeftUpLeg
		{
			OFFSET 1.800000 -1.400000 0.085000
			CHANNELS 3 Zrotation Yrotation Xrotation
			JOINT LeftLeg
			{
				OFFSET 2.215000 -6.000000 0.000000
				CHANNELS 3 Zrotation Yrotation Xrotation
				JOINT LeftFoot
				{
					OFFSET 2.500000 -6.900000 0.000000
					CHANNELS 3 Zrotation Yrotation Xrotation
					JOINT LeftToeBase
					{
						OFFSET 0.200000 -0.500000 1.950000
						CHANNELS 3 Zrotation Yrotation Xrotation
						End Site
						{
							OFFSET 0.000000 0.000000 0.000000
						}
					}
				}
			}
		}
	}
	JOINT RHipJoint
	{
		OFFSET 0.000000 0.000000 0.000000
		CHANNELS 3 Zrotation Yrotation Xrotation
		JOINT RightUpLeg
		{
			OFFSET -1.800000 -1.400000 0.085000
			CHANNELS 3 Zrotation Yrotation Xrotation
			JOINT RightLeg
			{
				OFFSET -2.215000 -6.000000 0.000000
				CHANNELS 3 Zrotation Yrotation Xrotation
				JOINT RightFoot
				{
					OFFSET -2.500000 -6.900000 0.000000
					CHANNELS 3 Zrotation Yrotation Xrotation
					JOINT RightToeBase
					{
						OFFSET -0.200000 -0.500000 1.950000
						CHANNELS 3 Zrotation Yrotation Xrotation
						End Site
						{
							OFFSET 0.000000 0.000000 0.000000
						}
					}
				}
			}
		}
	}
	JOINT LowerBack
	{
		OFFSET 0.000000 0.000000 0.000000
		CHANNELS 3 Zrotation Yrotation Xrotation
		JOINT Spine
		{
			OFFSET -0.087000 1.940000 -0.288900
			CHANNELS 3 Zrotation Yrotation Xrotation
			JOINT Spine1
			{
				OFFSET 0.000000 1.950000 0.060000
				CHANNELS 3 Zrotation Yrotation Xrotation
				JOINT Neck
				{
					OFFSET 0.000000 0.000000 0.000000
					CHANNELS 3 Zrotation Yrotation Xrotation
					JOINT Neck1
					{
						OFFSET 0.000000 1.600000 0.340000
						CHANNELS 3 Zrotation Yrotation Xrotation
						JOINT Head
						{
							OFFSET 0.000000 1.667000 -0.240000
							CHANNELS 3 Zrotation Yrotation Xrotation
							End Site
							{
								OFFSET 0.000000 0.000000 0.000000
							}
						}
					}
				}
				JOINT LeftShoulder
				{
					OFFSET 0.000000 0.000000 0.000000
					CHANNELS 3 Zrotation Yrotation Xrotation
					JOINT LeftArm
					{
						OFFSET 2.700000 1.550000 -0.730000
						CHANNELS 3 Zrotation Yrotation Xrotation
						JOINT LeftForeArm
						{
							OFFSET 5.450000 0.000000 0.000000
							CHANNELS 3 Zrotation Yrotation Xrotation
							JOINT LeftHand
							{
								OFFSET 3.450000 0.000000 0.000000
								CHANNELS 3 Zrotation Yrotation Xrotation
								JOINT LeftHandIndex1
								{
									OFFSET 0.750000 0.000000 0.000000
									CHANNELS 3 Zrotation Yrotation Xrotation
									End Site
									{
										OFFSET 0.000000 0.000000 0.000000
									}
								}
							}
						}
					}
				}
				JOINT RightShoulder
				{
					OFFSET 0.000000 0.000000 0.000000
					CHANNELS 3 Zrotation Yrotation Xrotation
					JOINT RightArm
					{
						OFFSET -2.700000 1.550000 -0.730000
						CHANNELS 3 Zrotation Yrotation Xrotation
						JOINT RightForeArm
						{
							OFFSET -5.450000 0.000000 0.000000
							CHANNELS 3 Zrotation Yrotation Xrotation
							JOINT RightHand
							{
								OFFSET -3.450000 0.000000 0.000000
								CHANNELS 3 Zrotation Yrotation Xrotation
								JOINT RightHandIndex1
								{
									OFFSET -0.750000 0.000000 0.000000
									CHANNELS 3 Zrotation Yrotation Xrotation
									End Site
									{
										OFFSET 0.000000 0.000000 0.000000
									}
								}
							}
						}
					}
				}
			}
		}
	}
}
MOTION
Frames: 13
Frame Time: 0.016667
-1.024940 16.920330 -0.877820 -10.424234 -21.567126 4.770281 -15.661311 15.309258 3.407725 24.861203 -0.950779 -7.995792 1.672012 5.002942 5.703959 -0.089811 5.152654 2.962389 0.126700 0.066390 -0.322830 17.635538 -8.986319 2.824484 -0.323153 0.461824 -9.506996 9.057484 -4.074039 6.482862 0.064943 -2.944906 3.716352 0.173540 0.675840 -0.118430 -1.579215 -8.278022 -8.134142 21.508000 -10.399252 15.576912 -13.261247 -4.140613 -10.036371 18.395314 -15.037451 -11.366497 -36.444293 18.625123 19.885029 3.328260 5.826270 5.176940 -13.412741 12.171872 -2.300619 -62.754216 1.023219 -0.922785 -14.714613 -19.844498 0.183153 -3.975665 3.033290 0.040060 0.314350 -0.474530 0.319460 -20.200179 5.408555 1.780112 -35.893499 2.351842 0.403013 -22.264426 2.406305 -0.551562 2.562196 -1.749731 -0.297020 0.456030 0.188590 0.035310 
-1.023000 16.906060 -0.876390 -9.950806 -21.978806 4.630736 -15.586483 15.104524 3.368883 24.840758 -0.907713 -7.239961 0.950761 5.143429 5.573558 -0.084683 5.197391 2.949482 0.109660 0.042430 -0.289050 17.716066 -9.164008 2.770778 -1.540792 0.425005 -9.902644 9.400740 -4.234485 6.671069 0.062866 -2.993703 3.700061 0.153720 0.649980 -0.119770 -1.826653 -7.576314 -8.100326 21.067576 -9.641932 14.015512 -13.252016 -4.363677 -7.786518 17.630256 -14.599932 -11.300957 -34.226181 18.304590 21.651982 2.418540 6.984330 5.037600 -14.433624 9.515780 -1.494694 -61.362588 0.652335 -1.333577 -14.193327 -18.307381 -0.013419 -3.981531 3.005829 0.056430 0.318800 -0.460020 0.292950 -18.310266 6.445216 2.356123 -36.734204 0.584728 0.244352 -22.662002 0.869395 -0.468749 2.565871 -1.686103 -0.305490 0.445020 0.186440 0.005810 
-1.018130 16.890520 -0.865850 -9.555037 -22.196015 4.430260 -15.476523 14.952995 3.247397 24.620714 -0.891811 -6.620564 1.156331 5.124607 5.932576 -0.090210 5.135018 2.966625 0.123160 0.058050 -0.249430 17.828014 -9.355932 2.744243 -2.514022 0.267316 -10.047135 9.611694 -4.357216 6.682763 0.039322 -3.037867 3.680399 0.150090 0.605150 -0.133740 -2.168219 -6.950790 -7.940935 21.529134 -9.487780 12.420801 -13.820377 -5.103139 -5.363338 16.588860 -14.111298 -11.656610 -32.972224 18.072238 22.746679 2.414850 7.498930 4.390720 -13.981333 6.938215 -0.525391 -61.625867 -0.380989 -1.224963 -11.849401 -15.613337 -0.420479 -3.962858 2.974564 0.078870 0.293030 -0.432920 0.277470 -17.162229 7.286055 3.366810 -35.490650 -1.681718 -0.574875 -26.326381 -2.125926 -0.176528 2.729313 -1.647501 -0.299830 0.437040 0.166680 -0.013710 
-1.014760 16.876900 -0.852930 -9.070653 -22.712391 4.376235 -15.484536 15.006454 3.234644 24.307034 -0.897386 -6.164783 1.086004 5.145727 6.056530 -0.088482 5.126713 2.949281 0.142420 0.086690 -0.253680 17.815406 -9.350575 2.708393 -3.348051 0.137521 -10.091794 9.748286 -4.395317 6.525801 0.015776 -3.034823 3.663903 0.154040 0.578760 -0.123990 -2.133225 -7.053727 -7.917650 21.013595 -9.618382 11.947947 -12.693030 -5.562357 -5.141926 15.821764 -13.969738 -12.056518 -34.094607 19.153825 23.108155 3.368860 7.873790 4.116560 -12.914322 5.945724 0.330498 -63.329610 -0.337447 -0.849916 -11.473861 -13.179438 -0.541013 -3.948112 2.983706 0.106430 0.264790 -0.402940 0.277970 -16.503431 7.692659 3.641594 -35.554524 -2.681514 -0.866119 -28.477366 -3.835875 0.146552 2.779537 -1.634913 -0.281470 0.421810 0.167290 -0.011050 
-1.006490 16.856790 -0.828110 -8.700822 -23.031837 4.776719 -15.493829 15.065960 3.238606 23.878093 -0.929812 -6.140433 0.942520 5.157599 6.124304 -0.087643 5.085442 2.957606 0.110390 0.067980 -0.277170 17.793074 -9.342686 2.699707 -4.058429 0.064763 -10.397808 9.954882 -4.406450 6.244360 0.027901 -3.013941 3.677341 0.136990 0.574260 -0.140650 -2.081156 -7.174266 -7.922916 20.759977 -9.844081 11.396359 -11.915617 -5.939862 -5.587325 15.634694 -13.858999 -12.226154 -34.151609 19.826491 23.416668 3.348040 8.822260 4.561960 -12.637376 6.422411 0.574547 -64.240695 1.222221 -1.912756 -12.002305 -13.915605 -0.571472 -3.943287 2.961022 0.113100 0.262670 -0.401370 0.265410 -16.246015 7.193279 3.826103 -34.787920 -2.821077 -1.169039 -30.098069 -6.039913 0.585543 2.843116 -1.597952 -0.291170 0.420980 0.180370 -0.014480 
-0.999000 16.852630 -0.807930 -8.395501 -23.234421 4.681816 -15.546236 15.232501 3.307653 23.602060 -0.953549 -5.898454 0.690038 5.221966 6.180617 -0.049042 5.088803 2.953645 0.135720 0.057050 -0.228840 17.715738 -9.275270 2.690241 -4.539711 -0.063452 -10.238051 9.897997 -4.408882 6.132157 -0.003649 -2.949944 3.692472 0.100940 0.518990 -0.128780 -1.862947 -7.605705 -8.045238 20.079585 -9.585144 11.688920 -10.843665 -5.539872 -6.485837 15.990674 -13.391243 -12.908625 -34.922736 20.347820 25.501691 3.850620 8.731980 5.003880 -12.404645 6.353137 0.710850 -65.042712 1.585136 -1.708838 -13.067024 -12.955278 -0.449426 -3.880433 2.967180 0.172860 0.210040 -0.350460 0.268270 -16.661642 7.338299 4.682434 -32.946277 -4.699148 -1.313485 -31.943588 -7.650457 1.213467 2.974765 -1.579985 -0.271240 0.389870 0.150360 -0.030750 
-0.990210 16.839360 -0.788850 -8.077930 -23.384593 4.971957 -15.604596 15.378294 3.353198 23.224787 -1.001518 -6.109980 0.492054 5.264045 6.292553 -0.011765 5.092588 2.982448 0.071560 -0.026590 -0.270550 17.638337 -9.210391 2.679451 -4.984517 -0.073743 -10.635765 9.995990 -4.433721 6.193212 0.033188 -2.915852 3.724930 0.044600 0.558390 -0.132490 -1.645018 -7.979982 -8.139356 19.143456 -9.446193 11.558207 -9.305251 -5.351661 -6.960000 16.233624 -13.127761 -13.384735 -34.866493 20.178357 25.961689 3.600200 8.697500 7.118070 -11.597977 6.886165 0.850892 -66.305065 2.128232 -2.043722 -14.493009 -13.917760 -0.289294 -3.888786 2.964973 0.159390 0.231730 -0.377280 0.273230 -17.419757 6.997698 5.402263 -30.158737 -5.812190 -1.807280 -34.407252 -8.964983 1.795320 3.110512 -1.608695 -0.287960 0.385540 0.166180 -0.020640 
-0.979490 16.846350 -0.782530 -7.616415 -24.073968 4.713120 -15.700365 15.620847 3.409457 22.721322 -0.936535 -6.023344 0.238262 5.374812 6.717439 0.038742 5.061703 2.981361 0.072000 -0.018310 -0.268180 17.515656 -9.121646 2.658113 -5.469859 -0.108860 -10.669259 9.770714 -4.388100 6.286656 0.032768 -2.826361 3.767233 0.019080 0.516070 -0.145620 -1.279074 -8.549295 -8.290942 17.572958 -9.425854 12.454404 -7.309251 -4.993486 -7.843649 16.544567 -12.836472 -14.218839 -36.339156 21.040773 26.996000 3.676020 8.955550 7.651280 -10.683549 7.129952 1.683369 -67.483098 3.544714 -3.359623 -16.741823 -17.411507 -0.009341 -3.811322 2.984164 0.175480 0.195010 -0.344690 0.272320 -18.145330 7.173950 5.938109 -27.915211 -5.639083 -2.763950 -36.822442 -11.222320 2.586409 3.214687 -1.611454 -0.263180 0.367870 0.149500 -0.016520 
-0.952150 16.843720 -0.777530 -7.293993 -24.328237 3.824783 -15.756383 15.751920 3.412505 22.408954 -0.814803 -5.402840 0.013103 5.509144 7.151088 0.087771 5.055471 2.964339 0.123740 0.052830 -0.231070 17.452919 -9.087735 2.615469 -6.158159 -0.357518 -9.929839 9.697466 -4.424991 6.251488 -0.013687 -2.831546 3.760947 0.027350 0.447630 -0.151680 -1.084783 -8.836059 -8.352248 16.648529 -9.192608 13.411809 -5.959297 -4.574382 -7.629628 16.376964 -12.431353 -14.781090 -37.564003 21.562658 28.298017 4.103570 8.471920 6.680070 -9.048568 6.899973 2.614759 -68.260288 3.205587 -3.633335 -20.273673 -20.770601 0.692474 -3.707883 3.040589 0.198480 0.138120 -0.287930 0.276010 -19.082353 7.206851 6.172853 -25.008724 -5.038316 -4.282436 -40.734025 -14.602826 3.924773 3.336906 -1.648270 -0.217290 0.352150 0.110510 -0.009610 
-0.916890 16.835650 -0.776670 -7.406039 -24.515977 2.964114 -15.803838 15.846628 3.392708 22.474941 -0.707994 -4.694658 0.000328 5.659148 7.694570 0.128246 5.121335 2.951366 0.144600 0.086130 -0.229670 17.415955 -9.044795 2.560285 -6.433425 -0.583831 -9.174636 9.548442 -4.483132 6.393770 -0.036924 -2.867242 3.765093 0.034470 0.426840 -0.164720 -0.958873 -9.053168 -8.366896 16.360460 -8.976772 14.561564 -4.520450 -4.213288 -6.617824 16.019972 -12.296183 -15.180667 -38.462208 21.248966 28.341167 3.787570 7.776350 6.144810 -7.025974 6.569628 3.756781 -69.063512 2.397218 -4.026355 -24.926819 -26.049510 2.024244 -3.615390 3.114572 0.206000 0.115050 -0.267410 0.298380 -20.243179 7.267194 6.176136 -22.722940 -5.014943 -5.747209 -44.222667 -17.830660 5.357641 3.423726 -1.697848 -0.205670 0.359370 0.083010 0.002290 
-0.880820 16.831140 -0.777600 -6.972981 -24.718371 1.864250 -15.916149 16.018061 3.372389 22.075806 -0.531096 -4.086120 0.015393 5.797859 8.305958 0.175107 5.172944 2.948287 0.104240 0.064080 -0.266980 17.307907 -8.970472 2.503198 -7.186456 -0.781519 -8.362737 9.466897 -4.519774 6.305738 -0.026988 -2.919077 3.774675 0.010570 0.431320 -0.181600 -0.616983 -9.437146 -8.478556 14.483448 -8.323089 16.246799 -2.181297 -3.355315 -6.259368 15.990906 -12.272972 -15.279289 -38.877657 20.577181 28.628370 2.402640 7.343040 6.374520 -6.297886 6.788405 4.686800 -68.376353 2.860988 -4.639858 -32.098555 -33.366476 5.002271 -3.561464 3.200446 0.184170 0.122540 -0.275390 0.295360 -20.551522 7.280107 5.897790 -21.533446 -4.733227 -6.816673 -47.876433 -20.627844 6.969218 3.436859 -1.733465 -0.203140 0.366880 0.093860 0.017020 
-0.837180 16.828270 -0.800200 -6.784376 -25.281922 -0.396558 -16.038141 16.149065 3.332370 22.328289 -0.255293 -2.381506 -0.066483 6.114540 9.203024 0.255850 5.390751 2.890906 0.149160 0.089940 -0.208470 17.220361 -8.886330 2.383307 -7.870795 -1.118030 -6.600754 9.289943 -4.723461 6.823414 -0.083907 -3.043177 3.733750 0.005620 0.382570 -0.165030 -0.286657 -9.747662 -8.556349 12.406920 -7.303566 18.964173 -0.313183 -2.428636 -4.135538 15.839133 -12.062288 -15.373331 -38.580370 19.927368 29.379390 1.609310 6.712030 5.265520 -5.828425 5.961432 6.131355 -67.224647 2.851331 -5.544673 -41.179781 -44.670667 10.810248 -3.443741 3.362674 0.210260 0.088700 -0.231500 0.308700 -20.792797 7.816426 5.481520 -19.916229 -4.533702 -8.736727 -52.510486 -24.165277 9.145001 3.436868 -1.815677 -0.175780 0.350870 0.052670 0.009710 
-0.786660 16.834750 -0.827050 -6.182797 -25.736518 -3.455568 -16.188710 16.294690 3.255916 22.242120 0.153793 -0.161711 -0.000576 6.437486 10.196800 0.356595 5.623614 2.838043 0.184470 0.129120 -0.159790 17.122562 -8.769423 2.235912 -9.086622 -1.574508 -4.129200 9.059788 -4.965611 7.179240 -0.150843 -3.260207 3.660457 0.009660 0.331980 -0.151500 0.105996 -10.126616 -8.615601 9.683864 -6.012668 22.030971 1.239795 -1.944537 -0.939472 15.907068 -11.968914 -15.210304 -37.590823 18.550233 29.651439 -0.257330 6.335300 3.969700 -6.497374 4.360753 7.525950 -65.185898 2.489002 -6.152973 -52.017021 -57.768088 20.557313 -3.356660 3.531004 0.214580 0.067430 -0.187530 0.322670 -20.634884 9.056461 4.890527 -18.294252 -4.060061 -11.331761 -58.963653 -28.381868 12.245459 3.421514 -1.940277 -0.146890 0.331160 0.005220 0.010600 
